<?xml version="1.0" encoding="UTF-8" standalone="no"?>
<svg
   xmlns:dc="http://purl.org/dc/elements/1.1/"
   xmlns:cc="http://creativecommons.org/ns#"
   xmlns:rdf="http://www.w3.org/1999/02/22-rdf-syntax-ns#"
   xmlns:svg="http://www.w3.org/2000/svg"
   xmlns="http://www.w3.org/2000/svg"
   xmlns:sodipodi="http://sodipodi.sourceforge.net/DTD/sodipodi-0.dtd"
   xmlns:inkscape="http://www.inkscape.org/namespaces/inkscape"
   version="1.1"
   x="0px"
   y="0px"
   viewBox="0 0 99.999998 99.999998"
   enable-background="new 0 0 56.137 93.977"
   xml:space="preserve"
   id="svg2"
   inkscape:version="0.91 r13725"
   sodipodi:docname="frits.svg"
   width="100"
   height="100"><metadata
     id="metadata14"><rdf:RDF><cc:Work
         rdf:about=""><dc:format>image/svg+xml</dc:format><dc:type
           rdf:resource="http://purl.org/dc/dcmitype/StillImage" /><dc:title></dc:title></cc:Work></rdf:RDF></metadata><defs
     id="defs12" /><sodipodi:namedview
     pagecolor="#ffffff"
     bordercolor="#666666"
     borderopacity="1"
     objecttolerance="10"
     gridtolerance="10"
     guidetolerance="10"
     inkscape:pageopacity="0"
     inkscape:pageshadow="2"
     inkscape:window-width="1920"
     inkscape:window-height="1053"
     id="namedview10"
     showgrid="false"
     inkscape:zoom="9.1332265"
     inkscape:cx="49.699652"
     inkscape:cy="49.190861"
     inkscape:window-x="-9"
     inkscape:window-y="-9"
     inkscape:window-maximized="1"
     inkscape:current-layer="svg2" /><path
     d="M 49.696372,3.7282961 C 23.672924,3.7316961 2.5811797,24.823318 2.5778227,50.850125 c 0.0015,13.393783 5.602214,25.466485 14.5716653,34.045366 a 47.367748,47.367748 0 0 0 1.036149,0.964012 c 0.459163,0.413662 0.918325,0.827439 1.393554,1.22305 A 47.367748,47.367748 0 0 0 49.657025,97.889981 47.367748,47.367748 0 0 0 82.541641,84.606943 c 0.112548,-0.109476 0.219714,-0.22387 0.331175,-0.334454 a 47.367748,47.367748 0 0 0 2.773994,-2.977288 c 0.269095,-0.31717 0.522891,-0.646273 0.78367,-0.97057 a 47.367748,47.367748 0 0 0 1.583733,-2.085415 c 0.548746,-0.765547 1.077382,-1.545626 1.580455,-2.34445 A 47.367748,47.367748 0 0 0 90.253737,74.81599 C 94.416497,67.794953 96.820453,59.606717 96.821481,50.850125 96.818123,24.824997 75.723177,3.7316531 49.696372,3.7282961 Z M 16.618298,42.00023 c 0,0 8.776601,6.353955 27.362859,10.509046 18.584579,4.156768 36.088154,-0.200017 36.088154,-0.200017 0,0 4.943402,9.214565 8.564625,12.332141 -2.624002,7.396898 -7.308366,13.803892 -13.342059,18.581824 l -0.163954,-0.09509 -1.554225,1.131238 c -6.797556,4.935742 -15.094618,7.875415 -24.119975,7.902276 -0.241751,-0.0034 -0.484577,-0.01293 -0.724649,-0.01968 -0.483501,-0.0067 -0.957715,-0.03559 -1.43618,-0.05574 C 26.663507,90.867411 10.127512,74.577287 8.5225567,54.053664 l 8.0957353,-12.05343 z m 23.024805,15.011047 c -2.62568,0 -4.757759,3.451321 -4.757759,7.708818 0,4.257497 2.1304,7.708818 4.757759,7.708818 2.625681,0 4.754481,-3.451321 4.754481,-7.708818 0,-4.257497 -2.1288,-7.708818 -4.754481,-7.708818 z m 20.991855,0 c -2.624002,0 -4.754481,3.451321 -4.754481,7.708818 0,4.257497 2.127122,7.708818 4.754481,7.708818 2.62568,0 4.757761,-3.451321 4.757761,-7.708818 0,-4.257497 -2.132081,-7.708818 -4.757761,-7.708818 z m 14.220818,16.25049 c -0.370601,0.01343 -0.736269,0.168537 -1.009917,0.462332 -0.0034,0 -0.524082,0.573686 -1.59685,1.488644 -3.226699,2.768381 -11.053744,8.314061 -21.529604,8.30231 -7.047702,0 -12.973844,-2.082215 -17.142364,-4.177387 -2.08342,-1.047587 -3.723475,-2.091788 -4.833176,-2.869083 -1.109702,-0.777296 -1.652515,-1.260797 -1.655872,-1.259118 -0.604377,-0.52883 -1.518916,-0.46834 -2.046067,0.137714 -0.527151,0.59934 -0.466659,1.518837 0.137714,2.049345 0.129269,0.09737 10.279175,9.000174 25.54304,9.023678 15.379705,-0.03693 25.130262,-10.614809 25.254494,-10.718896 0.538903,-0.589267 0.507294,-1.505327 -0.08198,-2.052624 -0.293795,-0.271969 -0.668829,-0.400347 -1.039429,-0.386916 z"
     id="path4"
     inkscape:connector-curvature="0" /></svg>